<svg xmlns="http://www.w3.org/2000/svg" width="884.829" height="884.829" viewBox="0 0 884.829 884.829">
  <g id="Group_29" data-name="Group 29" transform="translate(3232.01 -4740.437) rotate(45)">
    <line id="Line_227" data-name="Line 227" y2="344" transform="translate(1278.601 5809.371) rotate(180)" fill="none" stroke="#b0c4d3" stroke-width="3"/>
    <line id="Line_256" data-name="Line 256" y2="344" transform="translate(1740.39 5809.371) rotate(180)" fill="none" stroke="#b0c4d3" stroke-width="3"/>
    <line id="Line_238" data-name="Line 238" y2="344" transform="translate(1394.049 5809.371) rotate(180)" fill="none" stroke="#b0c4d3" stroke-width="3"/>
    <line id="Line_261" data-name="Line 261" y2="344" transform="translate(1855.838 5809.371) rotate(180)" fill="none" stroke="#b0c4d3" stroke-width="3"/>
    <line id="Line_244" data-name="Line 244" y2="344" transform="translate(1509.496 5809.371) rotate(180)" fill="none" stroke="#b0c4d3" stroke-width="3"/>
    <line id="Line_250" data-name="Line 250" y2="344" transform="translate(1624.943 5809.371) rotate(180)" fill="none" stroke="#b0c4d3" stroke-width="3"/>
    <line id="Line_235" data-name="Line 235" y2="344" transform="translate(1336.325 5809.371) rotate(180)" fill="none" stroke="#b0c4d3" stroke-width="3"/>
    <line id="Line_257" data-name="Line 257" y2="344" transform="translate(1798.114 5809.371) rotate(180)" fill="none" stroke="#b0c4d3" stroke-width="3"/>
    <line id="Line_241" data-name="Line 241" y2="344" transform="translate(1451.772 5809.371) rotate(180)" fill="none" stroke="#b0c4d3" stroke-width="3"/>
    <line id="Line_265" data-name="Line 265" y2="344" transform="translate(1913.561 5809.371) rotate(180)" fill="none" stroke="#b0c4d3" stroke-width="3"/>
    <line id="Line_247" data-name="Line 247" y2="344" transform="translate(1567.219 5809.371) rotate(180)" fill="none" stroke="#b0c4d3" stroke-width="3"/>
    <line id="Line_253" data-name="Line 253" y2="344" transform="translate(1682.667 5809.371) rotate(180)" fill="none" stroke="#b0c4d3" stroke-width="3"/>
    <line id="Line_228" data-name="Line 228" y2="344" transform="translate(1259.36 5809.371) rotate(180)" fill="none" stroke="#b0c4d3" stroke-width="3"/>
    <line id="Line_255" data-name="Line 255" y2="344" transform="translate(1721.149 5809.371) rotate(180)" fill="none" stroke="#b0c4d3" stroke-width="3"/>
    <line id="Line_236" data-name="Line 236" y2="344" transform="translate(1374.807 5809.371) rotate(180)" fill="none" stroke="#b0c4d3" stroke-width="3"/>
    <line id="Line_262" data-name="Line 262" y2="344" transform="translate(1836.596 5809.371) rotate(180)" fill="none" stroke="#b0c4d3" stroke-width="3"/>
    <line id="Line_242" data-name="Line 242" y2="344" transform="translate(1490.255 5809.371) rotate(180)" fill="none" stroke="#b0c4d3" stroke-width="3"/>
    <line id="Line_248" data-name="Line 248" y2="344" transform="translate(1605.702 5809.371) rotate(180)" fill="none" stroke="#b0c4d3" stroke-width="3"/>
    <line id="Line_234" data-name="Line 234" y2="344" transform="translate(1317.084 5809.371) rotate(180)" fill="none" stroke="#b0c4d3" stroke-width="3"/>
    <line id="Line_258" data-name="Line 258" y2="344" transform="translate(1778.873 5809.371) rotate(180)" fill="none" stroke="#b0c4d3" stroke-width="3"/>
    <line id="Line_240" data-name="Line 240" y2="344" transform="translate(1432.531 5809.371) rotate(180)" fill="none" stroke="#b0c4d3" stroke-width="3"/>
    <line id="Line_264" data-name="Line 264" y2="344" transform="translate(1894.32 5809.371) rotate(180)" fill="none" stroke="#b0c4d3" stroke-width="3"/>
    <line id="Line_246" data-name="Line 246" y2="344" transform="translate(1547.978 5809.371) rotate(180)" fill="none" stroke="#b0c4d3" stroke-width="3"/>
    <line id="Line_252" data-name="Line 252" y2="344" transform="translate(1663.426 5809.371) rotate(180)" fill="none" stroke="#b0c4d3" stroke-width="3"/>
    <line id="Line_230" data-name="Line 230" y2="344" transform="translate(1240.119 5809.371) rotate(180)" fill="none" stroke="#b0c4d3" stroke-width="3"/>
    <line id="Line_254" data-name="Line 254" y2="344" transform="translate(1701.908 5809.371) rotate(180)" fill="none" stroke="#b0c4d3" stroke-width="3"/>
    <line id="Line_237" data-name="Line 237" y2="344" transform="translate(1355.566 5809.371) rotate(180)" fill="none" stroke="#b0c4d3" stroke-width="3"/>
    <line id="Line_259" data-name="Line 259" y2="344" transform="translate(1817.355 5809.371) rotate(180)" fill="none" stroke="#b0c4d3" stroke-width="3"/>
    <line id="Line_243" data-name="Line 243" y2="344" transform="translate(1471.013 5809.371) rotate(180)" fill="none" stroke="#b0c4d3" stroke-width="3"/>
    <line id="Line_249" data-name="Line 249" y2="344" transform="translate(1586.461 5809.371) rotate(180)" fill="none" stroke="#b0c4d3" stroke-width="3"/>
    <line id="Line_233" data-name="Line 233" y2="344" transform="translate(1297.843 5809.371) rotate(180)" fill="none" stroke="#b0c4d3" stroke-width="3"/>
    <line id="Line_260" data-name="Line 260" y2="344" transform="translate(1759.632 5809.371) rotate(180)" fill="none" stroke="#b0c4d3" stroke-width="3"/>
    <line id="Line_239" data-name="Line 239" y2="344" transform="translate(1413.29 5809.371) rotate(180)" fill="none" stroke="#b0c4d3" stroke-width="3"/>
    <line id="Line_263" data-name="Line 263" y2="344" transform="translate(1875.079 5809.371) rotate(180)" fill="none" stroke="#b0c4d3" stroke-width="3"/>
    <line id="Line_245" data-name="Line 245" y2="344" transform="translate(1528.737 5809.371) rotate(180)" fill="none" stroke="#b0c4d3" stroke-width="3"/>
    <line id="Line_251" data-name="Line 251" y2="344" transform="translate(1644.184 5809.371) rotate(180)" fill="none" stroke="#b0c4d3" stroke-width="3"/>
    <line id="Line_268" data-name="Line 268" y2="344" transform="translate(1971.285 5809.371) rotate(180)" fill="none" stroke="#b0c4d3" stroke-width="3"/>
    <line id="Line_274" data-name="Line 274" y2="344" transform="translate(2086.732 5809.371) rotate(180)" fill="none" stroke="#b0c4d3" stroke-width="3"/>
    <line id="Line_271" data-name="Line 271" y2="344" transform="translate(2029.009 5809.371) rotate(180)" fill="none" stroke="#b0c4d3" stroke-width="3"/>
    <line id="Line_277" data-name="Line 277" y2="344" transform="translate(2144.456 5809.371) rotate(180)" fill="none" stroke="#b0c4d3" stroke-width="3"/>
    <line id="Line_267" data-name="Line 267" y2="344" transform="translate(1952.044 5809.371) rotate(180)" fill="none" stroke="#b0c4d3" stroke-width="3"/>
    <line id="Line_273" data-name="Line 273" y2="344" transform="translate(2067.491 5809.371) rotate(180)" fill="none" stroke="#b0c4d3" stroke-width="3"/>
    <line id="Line_270" data-name="Line 270" y2="344" transform="translate(2009.767 5809.371) rotate(180)" fill="none" stroke="#b0c4d3" stroke-width="3"/>
    <line id="Line_276" data-name="Line 276" y2="344" transform="translate(2125.215 5809.371) rotate(180)" fill="none" stroke="#b0c4d3" stroke-width="3"/>
    <line id="Line_266" data-name="Line 266" y2="344" transform="translate(1932.802 5809.371) rotate(180)" fill="none" stroke="#b0c4d3" stroke-width="3"/>
    <line id="Line_272" data-name="Line 272" y2="344" transform="translate(2048.25 5809.371) rotate(180)" fill="none" stroke="#b0c4d3" stroke-width="3"/>
    <line id="Line_269" data-name="Line 269" y2="344" transform="translate(1990.526 5809.371) rotate(180)" fill="none" stroke="#b0c4d3" stroke-width="3"/>
    <line id="Line_275" data-name="Line 275" y2="344" transform="translate(2105.973 5809.371) rotate(180)" fill="none" stroke="#b0c4d3" stroke-width="3"/>
  </g>
</svg>
