<svg xmlns="http://www.w3.org/2000/svg" width="34.5" height="31.699" viewBox="0 0 34.5 31.699">
  <path id="InstagramIcon" d="M17.249,9.96c-4.9,0-8.843,3.629-8.843,8.127s3.948,8.127,8.843,8.127,8.843-3.629,8.843-8.127S22.144,9.96,17.249,9.96Zm0,13.411A5.542,5.542,0,0,1,11.5,18.087,5.537,5.537,0,0,1,17.249,12.8,5.537,5.537,0,0,1,23,18.087,5.542,5.542,0,0,1,17.249,23.371ZM28.516,9.628a2.07,2.07,0,0,1-4.125,0,2.07,2.07,0,0,1,4.125,0Zm5.857,1.924A8.974,8.974,0,0,0,31.587,4.91c-2.017-1.853-4.464-2.433-7.227-2.561-2.848-.149-11.383-.149-14.231,0-2.755.12-5.2.7-7.227,2.553A9,9,0,0,0,.116,11.545c-.162,2.617-.162,10.462,0,13.079A8.974,8.974,0,0,0,2.9,31.265c2.024,1.853,4.464,2.433,7.227,2.561,2.848.149,11.383.149,14.231,0,2.763-.12,5.211-.7,7.227-2.561a9.032,9.032,0,0,0,2.786-6.642c.162-2.617.162-10.454,0-13.072Zm-3.679,15.88a5.607,5.607,0,0,1-3.279,3.013c-2.27.828-7.658.637-10.167.637s-7.9.184-10.167-.637A5.607,5.607,0,0,1,3.8,27.431c-.9-2.087-.693-7.038-.693-9.344s-.2-7.264.693-9.344A5.607,5.607,0,0,1,7.081,5.73c2.27-.828,7.658-.637,10.167-.637s7.9-.184,10.167.637a5.607,5.607,0,0,1,3.279,3.013c.9,2.087.693,7.038.693,9.344S31.595,25.352,30.694,27.431Z" transform="translate(0.005 -2.238)" fill="#b1b1b1"/>
</svg>
