<svg xmlns="http://www.w3.org/2000/svg" width="704.562" height="658.811" viewBox="0 0 704.562 658.811">
  <g id="Linije" transform="translate(201.662 -5321.969)">
    <g id="Group_28" data-name="Group 28">
      <line id="Line_95" data-name="Line 95" y2="344" transform="matrix(0.766, 0.643, -0.643, 0.766, 419.293, 5654.875)" fill="none" stroke="#b0c4d3" stroke-width="3"/>
      <line id="Line_45" data-name="Line 45" y2="344" transform="matrix(0.766, 0.643, -0.643, 0.766, 77.159, 5369.06)" fill="none" stroke="#b0c4d3" stroke-width="3"/>
      <line id="Line_46" data-name="Line 46" y2="344" transform="matrix(0.766, 0.643, -0.643, 0.766, 113.163, 5399.271)" fill="none" stroke="#b0c4d3" stroke-width="3"/>
      <line id="Line_47" data-name="Line 47" y2="344" transform="matrix(0.766, 0.643, -0.643, 0.766, 149.167, 5429.482)" fill="none" stroke="#b0c4d3" stroke-width="3"/>
      <line id="Line_48" data-name="Line 48" y2="344" transform="matrix(0.766, 0.643, -0.643, 0.766, 185.171, 5459.693)" fill="none" stroke="#b0c4d3" stroke-width="3"/>
      <line id="Line_49" data-name="Line 49" y2="344" transform="matrix(0.766, 0.643, -0.643, 0.766, 221.175, 5489.904)" fill="none" stroke="#b0c4d3" stroke-width="3"/>
      <line id="Line_50" data-name="Line 50" y2="344" transform="matrix(0.766, 0.643, -0.643, 0.766, 257.179, 5520.115)" fill="none" stroke="#b0c4d3" stroke-width="3"/>
      <line id="Line_51" data-name="Line 51" y2="344" transform="matrix(0.766, 0.643, -0.643, 0.766, 293.184, 5550.326)" fill="none" stroke="#b0c4d3" stroke-width="3"/>
      <line id="Line_52" data-name="Line 52" y2="344" transform="matrix(0.766, 0.643, -0.643, 0.766, 329.188, 5580.537)" fill="none" stroke="#b0c4d3" stroke-width="3"/>
      <line id="Line_53" data-name="Line 53" y2="344" transform="matrix(0.766, 0.643, -0.643, 0.766, 365.192, 5610.748)" fill="none" stroke="#b0c4d3" stroke-width="3"/>
      <line id="Line_54" data-name="Line 54" y2="344" transform="matrix(0.766, 0.643, -0.643, 0.766, 401.196, 5640.959)" fill="none" stroke="#b0c4d3" stroke-width="3"/>
      <line id="Line_35" data-name="Line 35" y2="344" transform="matrix(0.766, 0.643, -0.643, 0.766, 59.157, 5353.954)" fill="none" stroke="#b0c4d3" stroke-width="3"/>
      <line id="Line_36" data-name="Line 36" y2="344" transform="matrix(0.766, 0.643, -0.643, 0.766, 95.161, 5384.165)" fill="none" stroke="#b0c4d3" stroke-width="3"/>
      <line id="Line_37" data-name="Line 37" y2="344" transform="matrix(0.766, 0.643, -0.643, 0.766, 131.166, 5414.376)" fill="none" stroke="#b0c4d3" stroke-width="3"/>
      <line id="Line_38" data-name="Line 38" y2="344" transform="matrix(0.766, 0.643, -0.643, 0.766, 167.17, 5444.587)" fill="none" stroke="#b0c4d3" stroke-width="3"/>
      <line id="Line_39" data-name="Line 39" y2="344" transform="matrix(0.766, 0.643, -0.643, 0.766, 203.174, 5474.798)" fill="none" stroke="#b0c4d3" stroke-width="3"/>
      <line id="Line_40" data-name="Line 40" y2="344" transform="matrix(0.766, 0.643, -0.643, 0.766, 239.178, 5505.009)" fill="none" stroke="#b0c4d3" stroke-width="3"/>
      <line id="Line_41" data-name="Line 41" y2="344" transform="matrix(0.766, 0.643, -0.643, 0.766, 275.182, 5535.22)" fill="none" stroke="#b0c4d3" stroke-width="3"/>
      <line id="Line_42" data-name="Line 42" y2="344" transform="matrix(0.766, 0.643, -0.643, 0.766, 311.186, 5565.431)" fill="none" stroke="#b0c4d3" stroke-width="3"/>
      <line id="Line_43" data-name="Line 43" y2="344" transform="matrix(0.766, 0.643, -0.643, 0.766, 347.19, 5595.642)" fill="none" stroke="#b0c4d3" stroke-width="3"/>
      <line id="Line_44" data-name="Line 44" y2="344" transform="matrix(0.766, 0.643, -0.643, 0.766, 383.194, 5625.854)" fill="none" stroke="#b0c4d3" stroke-width="3"/>
      <line id="Line_119" data-name="Line 119" y2="344" transform="matrix(0.766, 0.643, -0.643, 0.766, 77.159, 5369.06)" fill="none" stroke="#b0c4d3" stroke-width="3"/>
      <line id="Line_120" data-name="Line 120" y2="344" transform="matrix(0.766, 0.643, -0.643, 0.766, 113.163, 5399.271)" fill="none" stroke="#b0c4d3" stroke-width="3"/>
      <line id="Line_121" data-name="Line 121" y2="344" transform="matrix(0.766, 0.643, -0.643, 0.766, 149.167, 5429.482)" fill="none" stroke="#b0c4d3" stroke-width="3"/>
      <line id="Line_122" data-name="Line 122" y2="344" transform="matrix(0.766, 0.643, -0.643, 0.766, 185.171, 5459.693)" fill="none" stroke="#b0c4d3" stroke-width="3"/>
      <line id="Line_123" data-name="Line 123" y2="344" transform="matrix(0.766, 0.643, -0.643, 0.766, 221.175, 5489.904)" fill="none" stroke="#b0c4d3" stroke-width="3"/>
      <line id="Line_124" data-name="Line 124" y2="344" transform="matrix(0.766, 0.643, -0.643, 0.766, 257.18, 5520.115)" fill="none" stroke="#b0c4d3" stroke-width="3"/>
      <line id="Line_125" data-name="Line 125" y2="344" transform="matrix(0.766, 0.643, -0.643, 0.766, 293.184, 5550.326)" fill="none" stroke="#b0c4d3" stroke-width="3"/>
      <line id="Line_126" data-name="Line 126" y2="344" transform="matrix(0.766, 0.643, -0.643, 0.766, 329.188, 5580.537)" fill="none" stroke="#b0c4d3" stroke-width="3"/>
      <line id="Line_127" data-name="Line 127" y2="344" transform="matrix(0.766, 0.643, -0.643, 0.766, 365.192, 5610.748)" fill="none" stroke="#b0c4d3" stroke-width="3"/>
      <line id="Line_128" data-name="Line 128" y2="344" transform="matrix(0.766, 0.643, -0.643, 0.766, 401.196, 5640.959)" fill="none" stroke="#b0c4d3" stroke-width="3"/>
      <line id="Line_129" data-name="Line 129" y2="344" transform="matrix(0.766, 0.643, -0.643, 0.766, 59.157, 5353.954)" fill="none" stroke="#b0c4d3" stroke-width="3"/>
      <line id="Line_130" data-name="Line 130" y2="344" transform="matrix(0.766, 0.643, -0.643, 0.766, 95.162, 5384.165)" fill="none" stroke="#b0c4d3" stroke-width="3"/>
      <line id="Line_131" data-name="Line 131" y2="344" transform="matrix(0.766, 0.643, -0.643, 0.766, 131.166, 5414.376)" fill="none" stroke="#b0c4d3" stroke-width="3"/>
      <line id="Line_132" data-name="Line 132" y2="344" transform="matrix(0.766, 0.643, -0.643, 0.766, 167.169, 5444.587)" fill="none" stroke="#b0c4d3" stroke-width="3"/>
      <line id="Line_133" data-name="Line 133" y2="344" transform="matrix(0.766, 0.643, -0.643, 0.766, 203.174, 5474.798)" fill="none" stroke="#b0c4d3" stroke-width="3"/>
      <line id="Line_134" data-name="Line 134" y2="344" transform="matrix(0.766, 0.643, -0.643, 0.766, 239.178, 5505.009)" fill="none" stroke="#b0c4d3" stroke-width="3"/>
      <line id="Line_135" data-name="Line 135" y2="344" transform="matrix(0.766, 0.643, -0.643, 0.766, 275.182, 5535.22)" fill="none" stroke="#b0c4d3" stroke-width="3"/>
      <line id="Line_136" data-name="Line 136" y2="344" transform="matrix(0.766, 0.643, -0.643, 0.766, 311.186, 5565.431)" fill="none" stroke="#b0c4d3" stroke-width="3"/>
      <line id="Line_137" data-name="Line 137" y2="344" transform="matrix(0.766, 0.643, -0.643, 0.766, 347.19, 5595.642)" fill="none" stroke="#b0c4d3" stroke-width="3"/>
      <line id="Line_138" data-name="Line 138" y2="344" transform="matrix(0.766, 0.643, -0.643, 0.766, 383.194, 5625.854)" fill="none" stroke="#b0c4d3" stroke-width="3"/>
      <line id="Line_143" data-name="Line 143" y2="344" transform="matrix(0.766, 0.643, -0.643, 0.766, 77.159, 5369.06)" fill="none" stroke="#b0c4d3" stroke-width="3"/>
      <line id="Line_144" data-name="Line 144" y2="344" transform="matrix(0.766, 0.643, -0.643, 0.766, 113.163, 5399.271)" fill="none" stroke="#b0c4d3" stroke-width="3"/>
      <line id="Line_145" data-name="Line 145" y2="344" transform="matrix(0.766, 0.643, -0.643, 0.766, 149.167, 5429.482)" fill="none" stroke="#b0c4d3" stroke-width="3"/>
      <line id="Line_146" data-name="Line 146" y2="344" transform="matrix(0.766, 0.643, -0.643, 0.766, 185.171, 5459.693)" fill="none" stroke="#b0c4d3" stroke-width="3"/>
      <line id="Line_147" data-name="Line 147" y2="344" transform="matrix(0.766, 0.643, -0.643, 0.766, 221.175, 5489.904)" fill="none" stroke="#b0c4d3" stroke-width="3"/>
      <line id="Line_148" data-name="Line 148" y2="344" transform="matrix(0.766, 0.643, -0.643, 0.766, 257.18, 5520.115)" fill="none" stroke="#b0c4d3" stroke-width="3"/>
      <line id="Line_149" data-name="Line 149" y2="344" transform="matrix(0.766, 0.643, -0.643, 0.766, 293.184, 5550.326)" fill="none" stroke="#b0c4d3" stroke-width="3"/>
      <line id="Line_150" data-name="Line 150" y2="344" transform="matrix(0.766, 0.643, -0.643, 0.766, 329.188, 5580.537)" fill="none" stroke="#b0c4d3" stroke-width="3"/>
      <line id="Line_151" data-name="Line 151" y2="344" transform="matrix(0.766, 0.643, -0.643, 0.766, 365.192, 5610.748)" fill="none" stroke="#b0c4d3" stroke-width="3"/>
      <line id="Line_152" data-name="Line 152" y2="344" transform="matrix(0.766, 0.643, -0.643, 0.766, 401.196, 5640.959)" fill="none" stroke="#b0c4d3" stroke-width="3"/>
      <line id="Line_153" data-name="Line 153" y2="344" transform="matrix(0.766, 0.643, -0.643, 0.766, 59.157, 5353.954)" fill="none" stroke="#b0c4d3" stroke-width="3"/>
      <line id="Line_154" data-name="Line 154" y2="344" transform="matrix(0.766, 0.643, -0.643, 0.766, 95.162, 5384.165)" fill="none" stroke="#b0c4d3" stroke-width="3"/>
      <line id="Line_155" data-name="Line 155" y2="344" transform="matrix(0.766, 0.643, -0.643, 0.766, 131.166, 5414.376)" fill="none" stroke="#b0c4d3" stroke-width="3"/>
      <line id="Line_156" data-name="Line 156" y2="344" transform="matrix(0.766, 0.643, -0.643, 0.766, 167.169, 5444.587)" fill="none" stroke="#b0c4d3" stroke-width="3"/>
      <line id="Line_157" data-name="Line 157" y2="344" transform="matrix(0.766, 0.643, -0.643, 0.766, 203.174, 5474.798)" fill="none" stroke="#b0c4d3" stroke-width="3"/>
      <line id="Line_158" data-name="Line 158" y2="344" transform="matrix(0.766, 0.643, -0.643, 0.766, 239.178, 5505.009)" fill="none" stroke="#b0c4d3" stroke-width="3"/>
      <line id="Line_159" data-name="Line 159" y2="344" transform="matrix(0.766, 0.643, -0.643, 0.766, 275.182, 5535.22)" fill="none" stroke="#b0c4d3" stroke-width="3"/>
      <line id="Line_160" data-name="Line 160" y2="344" transform="matrix(0.766, 0.643, -0.643, 0.766, 311.186, 5565.431)" fill="none" stroke="#b0c4d3" stroke-width="3"/>
      <line id="Line_161" data-name="Line 161" y2="344" transform="matrix(0.766, 0.643, -0.643, 0.766, 347.19, 5595.642)" fill="none" stroke="#b0c4d3" stroke-width="3"/>
      <line id="Line_162" data-name="Line 162" y2="344" transform="matrix(0.766, 0.643, -0.643, 0.766, 383.194, 5625.854)" fill="none" stroke="#b0c4d3" stroke-width="3"/>
      <line id="Line_184" data-name="Line 184" y2="344" transform="matrix(0.766, 0.643, -0.643, 0.766, 77.159, 5369.06)" fill="none" stroke="#b0c4d3" stroke-width="3"/>
      <line id="Line_185" data-name="Line 185" y2="344" transform="matrix(0.766, 0.643, -0.643, 0.766, 113.163, 5399.271)" fill="none" stroke="#b0c4d3" stroke-width="3"/>
      <line id="Line_186" data-name="Line 186" y2="344" transform="matrix(0.766, 0.643, -0.643, 0.766, 149.167, 5429.482)" fill="none" stroke="#b0c4d3" stroke-width="3"/>
      <line id="Line_187" data-name="Line 187" y2="344" transform="matrix(0.766, 0.643, -0.643, 0.766, 185.171, 5459.693)" fill="none" stroke="#b0c4d3" stroke-width="3"/>
      <line id="Line_188" data-name="Line 188" y2="344" transform="matrix(0.766, 0.643, -0.643, 0.766, 221.175, 5489.904)" fill="none" stroke="#b0c4d3" stroke-width="3"/>
      <line id="Line_189" data-name="Line 189" y2="344" transform="matrix(0.766, 0.643, -0.643, 0.766, 257.18, 5520.115)" fill="none" stroke="#b0c4d3" stroke-width="3"/>
      <line id="Line_190" data-name="Line 190" y2="344" transform="matrix(0.766, 0.643, -0.643, 0.766, 293.184, 5550.326)" fill="none" stroke="#b0c4d3" stroke-width="3"/>
      <line id="Line_191" data-name="Line 191" y2="344" transform="matrix(0.766, 0.643, -0.643, 0.766, 329.188, 5580.537)" fill="none" stroke="#b0c4d3" stroke-width="3"/>
      <line id="Line_192" data-name="Line 192" y2="344" transform="matrix(0.766, 0.643, -0.643, 0.766, 365.192, 5610.748)" fill="none" stroke="#b0c4d3" stroke-width="3"/>
      <line id="Line_193" data-name="Line 193" y2="344" transform="matrix(0.766, 0.643, -0.643, 0.766, 401.196, 5640.959)" fill="none" stroke="#b0c4d3" stroke-width="3"/>
      <line id="Line_194" data-name="Line 194" y2="344" transform="matrix(0.766, 0.643, -0.643, 0.766, 59.157, 5353.954)" fill="none" stroke="#b0c4d3" stroke-width="3"/>
      <line id="Line_195" data-name="Line 195" y2="344" transform="matrix(0.766, 0.643, -0.643, 0.766, 95.162, 5384.165)" fill="none" stroke="#b0c4d3" stroke-width="3"/>
      <line id="Line_196" data-name="Line 196" y2="344" transform="matrix(0.766, 0.643, -0.643, 0.766, 131.166, 5414.376)" fill="none" stroke="#b0c4d3" stroke-width="3"/>
      <line id="Line_197" data-name="Line 197" y2="344" transform="matrix(0.766, 0.643, -0.643, 0.766, 167.169, 5444.587)" fill="none" stroke="#b0c4d3" stroke-width="3"/>
      <line id="Line_198" data-name="Line 198" y2="344" transform="matrix(0.766, 0.643, -0.643, 0.766, 203.174, 5474.798)" fill="none" stroke="#b0c4d3" stroke-width="3"/>
      <line id="Line_199" data-name="Line 199" y2="344" transform="matrix(0.766, 0.643, -0.643, 0.766, 239.178, 5505.009)" fill="none" stroke="#b0c4d3" stroke-width="3"/>
      <line id="Line_200" data-name="Line 200" y2="344" transform="matrix(0.766, 0.643, -0.643, 0.766, 275.182, 5535.22)" fill="none" stroke="#b0c4d3" stroke-width="3"/>
      <line id="Line_201" data-name="Line 201" y2="344" transform="matrix(0.766, 0.643, -0.643, 0.766, 311.186, 5565.431)" fill="none" stroke="#b0c4d3" stroke-width="3"/>
      <line id="Line_202" data-name="Line 202" y2="344" transform="matrix(0.766, 0.643, -0.643, 0.766, 347.19, 5595.642)" fill="none" stroke="#b0c4d3" stroke-width="3"/>
      <line id="Line_203" data-name="Line 203" y2="344" transform="matrix(0.766, 0.643, -0.643, 0.766, 383.194, 5625.854)" fill="none" stroke="#b0c4d3" stroke-width="3"/>
      <line id="Line_225" data-name="Line 225" y2="344" transform="matrix(0.766, 0.643, -0.643, 0.766, 436.293, 5666.98)" fill="none" stroke="#b0c4d3" stroke-width="3"/>
      <line id="Line_226" data-name="Line 226" y2="344" transform="matrix(0.766, 0.643, -0.643, 0.766, 453.293, 5678.875)" fill="none" stroke="#b0c4d3" stroke-width="3"/>
      <line id="Line_227" data-name="Line 227" y2="344" transform="matrix(0.766, 0.643, -0.643, 0.766, 469.293, 5690.875)" fill="none" stroke="#b0c4d3" stroke-width="3"/>
      <line id="Line_228" data-name="Line 228" y2="344" transform="matrix(0.766, 0.643, -0.643, 0.766, 485.751, 5703.875)" fill="none" stroke="#b0c4d3" stroke-width="3"/>
      <line id="Line_230" data-name="Line 230" y2="344" transform="matrix(0.766, 0.643, -0.643, 0.766, 501.751, 5716.296)" fill="none" stroke="#b0c4d3" stroke-width="3"/>
      <line id="Line_231" data-name="Line 231" y2="344" transform="matrix(0.766, 0.643, -0.643, 0.766, 38.608, 5338.24)" fill="none" stroke="#b0c4d3" stroke-width="3"/>
      <line id="Line_232" data-name="Line 232" y2="344" transform="matrix(0.766, 0.643, -0.643, 0.766, 20.606, 5322.933)" fill="none" stroke="#b0c4d3" stroke-width="3"/>
    </g>
  </g>
</svg>
