<svg xmlns="http://www.w3.org/2000/svg" width="975" height="763.283" viewBox="0 0 975 763.283">
  <g id="linije29" transform="translate(-4649.5 -18128.475)">
    <line id="Line_279" data-name="Line 279" x2="4" y2="763.232" transform="translate(4806.5 18128.5)" fill="none" stroke="#b0c4d3" stroke-width="10"/>
    <line id="Line_280" data-name="Line 280" x2="4" y2="763.232" transform="translate(4954.5 18128.5)" fill="none" stroke="#b0c4d3" stroke-width="10"/>
    <line id="Line_281" data-name="Line 281" x2="4" y2="763.232" transform="translate(5250.5 18128.5)" fill="none" stroke="#b0c4d3" stroke-width="10"/>
    <line id="Line_282" data-name="Line 282" x2="4" y2="763.232" transform="translate(5398.5 18128.5)" fill="none" stroke="#b0c4d3" stroke-width="10"/>
    <line id="Line_283" data-name="Line 283" x2="4" y2="763.232" transform="translate(4732.5 18128.5)" fill="none" stroke="#b0c4d3" stroke-width="10"/>
    <line id="Line_285" data-name="Line 285" x2="4" y2="763.232" transform="translate(5546.5 18128.5)" fill="none" stroke="#b0c4d3" stroke-width="10"/>
    <line id="Line_284" data-name="Line 284" x2="4" y2="763.232" transform="translate(5472.5 18128.5)" fill="none" stroke="#b0c4d3" stroke-width="10"/>
    <line id="Line_286" data-name="Line 286" x2="4" y2="763.232" transform="translate(4880.5 18128.5)" fill="none" stroke="#b0c4d3" stroke-width="10"/>
    <line id="Line_287" data-name="Line 287" x2="4" y2="763.232" transform="translate(5028.5 18128.5)" fill="none" stroke="#b0c4d3" stroke-width="10"/>
    <line id="Line_289" data-name="Line 289" x2="4" y2="763.232" transform="translate(5102.5 18128.5)" fill="none" stroke="#b0c4d3" stroke-width="10"/>
    <line id="Line_290" data-name="Line 290" x2="4" y2="763.232" transform="translate(5176.5 18128.5)" fill="none" stroke="#b0c4d3" stroke-width="10"/>
    <line id="Line_288" data-name="Line 288" x2="4" y2="763.232" transform="translate(5324.5 18128.5)" fill="none" stroke="#b0c4d3" stroke-width="10"/>
    <path id="Path_37" data-name="Path 37" d="M4,763.232" transform="translate(5620.5 18128.5)" fill="none" stroke="#b0c4d3" stroke-width="10"/>
    <line id="Line_291" data-name="Line 291" x2="4" y2="763.232" transform="translate(4654.5 18128.5)" fill="none" stroke="#b0c4d3" stroke-width="10"/>
  </g>
</svg>
