<svg xmlns="http://www.w3.org/2000/svg" width="34.5" height="31.699" viewBox="0 0 34.5 31.699">
  <path id="LinkedInIconYellow" d="M32.036,2.25H2.457A2.378,2.378,0,0,0,0,4.535V31.664a2.378,2.378,0,0,0,2.457,2.285H32.036A2.385,2.385,0,0,0,34.5,31.664V4.535A2.385,2.385,0,0,0,32.036,2.25ZM10.427,29.421H5.314V14.293h5.121V29.421ZM7.87,12.227A2.853,2.853,0,0,1,4.905,9.5,2.853,2.853,0,0,1,7.87,6.778,2.858,2.858,0,0,1,10.835,9.5,2.849,2.849,0,0,1,7.87,12.227ZM29.595,29.421H24.481V22.062c0-1.755-.039-4.012-2.657-4.012-2.665,0-3.073,1.91-3.073,3.885v7.486H13.638V14.293h4.905v2.066h.069a5.488,5.488,0,0,1,4.844-2.441c5.175,0,6.138,3.135,6.138,7.21Z" transform="translate(0 -2.25)"/>
</svg>
