<?xml version="1.0" encoding="utf-8"?>
<!-- Generator: Adobe Illustrator 25.1.0, SVG Export Plug-In . SVG Version: 6.00 Build 0)  -->
<svg version="1.1" id="Layer_1" xmlns="http://www.w3.org/2000/svg" xmlns:xlink="http://www.w3.org/1999/xlink" x="0px" y="0px"
	 viewBox="0 0 306.67 111.56" style="enable-background:new 0 0 306.67 111.56;" xml:space="preserve">
<style type="text/css">
	.st0{fill:#58595B;}
	.st1{fill:#F0C419;}
	.st2{fill:#95ADB6;}
</style>
<g id="XMLID_523_">
	<g id="XMLID_567_">
		<path id="XMLID_573_" class="st0" d="M60.87,9.44c3.59,2.35,6.66,5.28,9.2,8.8l-9.2,7.31l-3.49,2.86
			c-1.8-2.64-4.15-4.76-7.05-6.34c-2.91-1.59-6.05-2.38-9.43-2.38c-2.75,0-5.34,0.53-7.77,1.59c-2.43,1.06-4.55,2.48-6.34,4.28
			c-1.8,1.8-3.23,3.91-4.28,6.34c-1.06,2.43-1.59,5.02-1.59,7.77v30.12v15.48H4.58v-45.7V3.36h16.33v6.09
			c2.85-1.92,5.97-3.42,9.36-4.48c3.38-1.07,6.92-1.61,10.62-1.61c3.7,0,7.24,0.54,10.62,1.61C54.9,6.03,58.02,7.52,60.87,9.44z"/>
		<path id="XMLID_570_" class="st0" d="M115.53,50.61H83.66c0.63,2.86,1.72,5.53,3.25,8.01c1.53,2.49,3.41,4.62,5.63,6.42
			c2.22,1.8,4.7,3.2,7.45,4.2c2.75,1.01,5.65,1.51,8.72,1.51c3.7,0,7.16-0.74,10.38-2.22c3.22-1.48,6.05-3.54,8.48-6.18h3.01h16.17
			c-0.63,1.59-1.4,3.09-2.3,4.52c-0.9,1.43-1.88,2.83-2.93,4.2c-3.81,4.86-8.56,8.75-14.27,11.65c-5.71,2.91-11.89,4.36-18.55,4.36
			c-5.81,0-11.26-1.08-16.33-3.25c-5.07-2.16-9.51-5.15-13.32-8.96c-3.81-3.81-6.79-8.25-8.96-13.32
			c-2.17-5.07-3.25-10.52-3.25-16.33c0-5.81,1.08-11.26,3.25-16.33c2.16-5.07,5.15-9.51,8.96-13.32c3.8-3.8,8.24-6.79,13.32-8.96
			c5.07-2.17,10.52-3.25,16.33-3.25c6.66,0,12.84,1.46,18.55,4.36c5.71,2.91,10.46,6.85,14.27,11.81c3.49,4.23,6.02,9.2,7.61,14.91
			c0.95,3.38,1.43,6.97,1.43,10.78c0,1.9-0.16,3.7-0.48,5.39H133.6H115.53z M108.71,19.69c-5.18,0-9.81,1.34-13.87,4
			c-4.07,2.67-7.16,6.2-9.28,10.58h36.94h9.35c-0.53-0.83-1.03-1.67-1.51-2.5c-0.48-0.84-0.98-1.62-1.51-2.36
			c-2.43-3.03-5.39-5.41-8.88-7.13C116.48,20.55,112.73,19.69,108.71,19.69z"/>
		<path id="XMLID_568_" class="st0" d="M221.89,3.52L194.3,66.78l-8.88,20.29l-8.88-20.29L148.96,3.52h17.6l18.87,43.12l18.87-43.12
			H221.89z"/>
	</g>
	<path class="st1" d="M288.84,51.03c-0.64-0.73-3.04-2.96-7.07-1.33c-5.95,2.41-17.52,2.37-21.46,2.15l-0.54,9.46
		c0.58,0.03,2.76,0.14,5.72,0.12c-3.48,2.17-7,4.22-10.56,6.09c-3.26,1.71-6.55,3.24-9.84,4.52c-3.28,1.25-6.59,2.25-9.63,2.64
		c-3.05,0.43-5.68,0.08-7.06-0.77c-0.72-0.42-1.27-0.96-1.77-1.8c-0.49-0.84-0.89-2-1.08-3.29c-0.1-0.64-0.15-1.33-0.15-1.92l0-0.29
		l0.06-0.6l0.15-1.31c0.23-1.78,0.51-3.59,0.85-5.39c0.53-2.82,1.21-5.62,1.97-8.38c2.27-0.38,4.55-0.72,6.81-1.16
		c4.94-0.94,9.9-1.81,14.81-2.91c2.46-0.53,4.93-1.02,7.38-1.6l7.35-1.76c2.46-0.56,4.89-1.21,7.32-1.87l7.31-1.95l3.13-0.83
		l-0.12-3.38c-0.04-1.19-0.12-2.16-0.22-3.22c-0.1-1.04-0.23-2.07-0.37-3.1c-0.3-2.06-0.7-4.11-1.22-6.17
		c-1.07-4.09-2.57-8.25-5.37-12.15c-1.41-1.93-3.2-3.78-5.45-5.2c-2.23-1.44-4.9-2.33-7.51-2.59c-2.62-0.28-5.14,0.03-7.45,0.59
		c-2.31,0.57-4.43,1.4-6.43,2.35l-1.47,0.74l-1.36,0.74l-1.48,0.88l-1.38,0.89c-1.81,1.22-3.53,2.56-5.15,3.99
		c-3.24,2.87-6.07,6.11-8.54,9.55c-4.93,6.89-8.46,14.48-11.11,22.24c-0.14,0.41-0.25,0.83-0.39,1.25l-5.52,0.98
		c-2.44,0.43-4.9,0.78-7.35,1.18c-4.9,0.82-9.83,1.41-14.76,2.1c-4.94,0.56-9.87,1.21-14.82,1.65c-4.95,0.52-9.91,0.9-14.87,1.29
		c-4.96,0.32-9.93,0.68-14.9,0.88c-4.97,0.26-9.95,0.39-14.93,0.52l-7.47,0.12l-7.47,0.02c-4.98-0.03-9.97-0.09-14.95-0.24
		c-9.97-0.29-19.93-0.81-29.87-1.63c-4.97-0.41-9.94-0.89-14.9-1.45c-4.96-0.57-9.91-1.2-14.84-2c4.9,0.98,9.83,1.79,14.77,2.53
		c4.94,0.73,9.9,1.39,14.86,1.97c9.93,1.17,19.9,2.05,29.88,2.69c4.99,0.33,9.99,0.57,14.99,0.77l7.5,0.25l7.51,0.15
		c5.01,0.04,10.02,0.09,15.02,0c5.01-0.02,10.02-0.21,15.03-0.35c5.01-0.22,10.02-0.43,15.02-0.77c5.01-0.27,10-0.75,15.01-1.14
		c4.99-0.52,9.99-0.95,14.97-1.6c2.49-0.31,4.99-0.58,7.48-0.93l2.67-0.38c-0.35,1.32-0.7,2.64-1,3.97c-0.45,2-0.85,4.01-1.18,6.07
		l-0.24,1.57l-0.11,0.85c-0.05,0.49-0.07,0.82-0.09,1.17c-0.06,1.35,0,2.6,0.14,3.88c0.29,2.55,0.96,5.2,2.31,7.78
		c1.33,2.57,3.46,5.01,6.03,6.67c2.56,1.67,5.39,2.58,8,2.97c2.64,0.42,5.11,0.38,7.45,0.17c4.69-0.45,8.89-1.62,12.91-2.98
		c4-1.39,7.81-3.01,11.49-4.78c4.15-2,8.16-4.16,12.08-6.42c-1.47,2.92-3.04,5.88-4.58,8.65l8.28,4.61
		C293.9,56.76,290.73,53.17,288.84,51.03z M237.96,29.02c1.96-2.94,4.17-5.65,6.66-8.02c1.24-1.19,2.55-2.28,3.93-3.28l1.04-0.73
		l0.99-0.65l1.17-0.69l1.11-0.61c2.96-1.55,6.01-2.5,8.51-2.33c1.25,0.08,2.37,0.4,3.44,1.03c1.06,0.62,2.08,1.54,3.01,2.7
		c1.85,2.35,3.24,5.55,4.23,8.92c0.5,1.69,0.9,3.44,1.22,5.21c0.12,0.69,0.23,1.38,0.32,2.07l-3.72,1.14
		c-2.36,0.73-4.73,1.45-7.12,2.09l-7.16,1.98c-2.39,0.65-4.8,1.22-7.2,1.83c-4.8,1.25-9.65,2.28-14.48,3.38
		c-1.07,0.24-2.14,0.46-3.21,0.68C232.6,38.51,234.98,33.52,237.96,29.02z"/>
	<g id="XMLID_525_">
		<path id="XMLID_561_" class="st0" d="M16.65,91.74v16.05c0,0.69-0.51,1.2-1.17,1.2c-0.69,0-1.2-0.51-1.2-1.2v-0.85
			c-0.98,1.41-2.53,2.31-4.47,2.31c-3.46,0-6.17-2.85-6.17-6.71c0-3.78,2.61-6.68,6.17-6.68c1.94,0,3.49,0.85,4.47,2.24v-6.36
			c0-0.69,0.48-1.17,1.2-1.17C16.17,90.57,16.65,91.05,16.65,91.74z M14.28,102.54c0-2.5-1.7-4.47-4.12-4.47
			c-2.4,0-4.15,1.97-4.15,4.47c0,2.47,1.76,4.5,4.15,4.5C12.58,107.04,14.28,105.02,14.28,102.54z"/>
		<path id="XMLID_558_" class="st0" d="M26.79,95.86c3.67,0,6.52,2.98,6.52,6.68c0,3.7-2.85,6.71-6.52,6.71
			c-3.65,0-6.49-3.01-6.49-6.71C20.3,98.84,23.15,95.86,26.79,95.86z M26.82,98.07c-2.39,0-4.15,1.97-4.15,4.47
			c0,2.47,1.76,4.5,4.15,4.5c2.42,0,4.13-2.02,4.13-4.5C30.94,100.04,29.24,98.07,26.82,98.07z"/>
		<path id="XMLID_556_" class="st0" d="M40.71,109.25c-2.79,0-5.19-1.33-5.19-2.61c0-0.59,0.43-0.88,0.93-0.88
			c0.88,0,1.86,1.54,4.47,1.54c1.54,0,2.4-0.75,2.4-1.78c0-2.95-7.45-1.28-7.45-6.01c0-2.05,1.81-3.65,4.84-3.65
			c2.4,0,4.39,1.09,4.39,2.13c0,0.56-0.4,0.88-0.91,0.88c-0.88,0-1.76-1.04-3.73-1.04c-1.44,0-2.29,0.66-2.29,1.62
			c0,2.77,7.45,1.28,7.45,5.96C45.64,107.57,43.91,109.25,40.71,109.25z"/>
		<path id="XMLID_554_" class="st0" d="M55.43,106.59c0.61,0,0.93,0.43,0.93,0.88c0,0.9-1.09,1.78-2.95,1.78
			c-2.42,0-3.86-1.41-3.86-4.15v-6.81h-1.41c-0.61,0-1.04-0.43-1.04-1.06c0-0.61,0.43-1.04,1.04-1.04h1.41v-2.02
			c0-0.69,0.48-1.2,1.17-1.2c0.69,0,1.2,0.51,1.2,1.2v2.02h2.9c0.61,0,1.04,0.43,1.04,1.06c0,0.61-0.43,1.04-1.04,1.04h-2.87v7.02
			c0,1.2,0.56,1.73,1.57,1.73C54.42,107.04,54.9,106.59,55.43,106.59z"/>
		<path id="XMLID_551_" class="st0" d="M70.76,97.3v10.51c0,0.69-0.48,1.17-1.17,1.17c-0.72,0-1.2-0.48-1.2-1.17v-0.88
			c-0.98,1.41-2.53,2.31-4.47,2.31c-3.46,0-6.17-2.85-6.17-6.71c0-3.78,2.61-6.68,6.17-6.68c1.94,0,3.49,0.85,4.47,2.24v-0.8
			c0-0.69,0.48-1.17,1.2-1.17C70.28,96.13,70.76,96.61,70.76,97.3z M68.4,102.54c0-2.5-1.7-4.47-4.12-4.47
			c-2.4,0-4.15,1.97-4.15,4.47c0,2.47,1.76,4.5,4.15,4.5C66.69,107.04,68.4,105.02,68.4,102.54z"/>
		<path id="XMLID_549_" class="st0" d="M77.82,107.28l-3.67-9.45c-0.37-1.06,0.19-1.73,1.06-1.73c0.72,0,1.04,0.4,1.25,1.12
			l3.54,9.66l3.59-9.74c0.24-0.72,0.59-1.04,1.22-1.04c0.8,0,1.33,0.61,0.98,1.62l-3.7,9.55c-0.43,1.17-1.09,1.73-2.16,1.73
			C78.91,109.01,78.24,108.45,77.82,107.28z"/>
		<path id="XMLID_546_" class="st0" d="M100.74,97.3v10.51c0,0.69-0.48,1.17-1.17,1.17c-0.72,0-1.2-0.48-1.2-1.17v-0.88
			c-0.98,1.41-2.53,2.31-4.47,2.31c-3.46,0-6.17-2.85-6.17-6.71c0-3.78,2.61-6.68,6.17-6.68c1.94,0,3.49,0.85,4.47,2.24v-0.8
			c0-0.69,0.48-1.17,1.2-1.17C100.26,96.13,100.74,96.61,100.74,97.3z M98.37,102.54c0-2.5-1.7-4.47-4.13-4.47
			c-2.39,0-4.15,1.97-4.15,4.47c0,2.47,1.76,4.5,4.15,4.5C96.66,107.04,98.37,105.02,98.37,102.54z"/>
	</g>
	<circle id="XMLID_524_" class="st2" cx="297.01" cy="42.5" r="6.62"/>
</g>
</svg>
