<svg xmlns="http://www.w3.org/2000/svg" width="22.758" height="23" viewBox="0 0 22.758 23">
  <path id="MailIcon" d="M24.413,10.615A10.944,10.944,0,0,1,24,13.188,7.151,7.151,0,0,1,22.9,15.447a5.357,5.357,0,0,1-4.553,2.216,4.2,4.2,0,0,1-1.954-.438,3.211,3.211,0,0,1-1.32-1.24,4.32,4.32,0,0,1-3.541,1.63,3.917,3.917,0,0,1-1.766-.4,3.573,3.573,0,0,1-1.325-1.128,4.757,4.757,0,0,1-.768-1.765,6.986,6.986,0,0,1-.1-2.3A9.975,9.975,0,0,1,8.341,9.2a7.57,7.57,0,0,1,1.415-2.16A5.95,5.95,0,0,1,11.7,5.667a5.843,5.843,0,0,1,2.365-.481A8.007,8.007,0,0,1,15.48,5.3a5.91,5.91,0,0,1,2.007.742c.278.164.557.333.834.506l-.687,7.244a2.21,2.21,0,0,0,.02.848,1.152,1.152,0,0,0,.282.523,1.029,1.029,0,0,0,.458.273A1.821,1.821,0,0,0,20,15.141a3.2,3.2,0,0,0,.863-1.006,6.132,6.132,0,0,0,.58-1.512A9.552,9.552,0,0,0,21.7,10.74a11.061,11.061,0,0,0-.323-3.518A6.765,6.765,0,0,0,19.957,4.5,6.579,6.579,0,0,0,17.41,2.747,9.989,9.989,0,0,0,13.7,2.124a8.823,8.823,0,0,0-3.67.733A8.341,8.341,0,0,0,7.242,4.889,9.54,9.54,0,0,0,5.416,7.946a12.757,12.757,0,0,0-.768,3.809,11.65,11.65,0,0,0,.392,3.886,6.829,6.829,0,0,0,1.549,2.785A6.5,6.5,0,0,0,9.215,20.1a10.9,10.9,0,0,0,3.623.555,13.5,13.5,0,0,0,2.377-.234c.392-.072.764-.158,1.118-.253a8.93,8.93,0,0,0,.963-.316l.5,2.049a5.736,5.736,0,0,1-1.077.489,11.105,11.105,0,0,1-1.273.338,13.512,13.512,0,0,1-2.66.273,15.106,15.106,0,0,1-4.849-.716A9.028,9.028,0,0,1,4.4,20.154a8.768,8.768,0,0,1-2.122-3.517,13.816,13.816,0,0,1-.593-4.882A13.812,13.812,0,0,1,2.7,7.07,11.461,11.461,0,0,1,5.159,3.347,11.224,11.224,0,0,1,8.906.891,12.657,12.657,0,0,1,13.758,0a13.24,13.24,0,0,1,4.7.772,9.192,9.192,0,0,1,3.394,2.17A8.723,8.723,0,0,1,23.867,6.3,11.812,11.812,0,0,1,24.413,10.615ZM10.944,12.024a4.511,4.511,0,0,0,.276,2.425,1.428,1.428,0,0,0,1.364.819,1.63,1.63,0,0,0,.467-.079,1.7,1.7,0,0,0,.538-.3,2.7,2.7,0,0,0,.546-.6,4.457,4.457,0,0,0,.5-1.02l.536-5.628a3.48,3.48,0,0,0-.834-.1,3.1,3.1,0,0,0-1.388.292,2.662,2.662,0,0,0-.983.857,4.816,4.816,0,0,0-.652,1.408,11.049,11.049,0,0,0-.37,1.926Z" transform="translate(-1.67)" fill="#dedede"/>
</svg>
