<svg id="Logo_Reve-01" data-name="Logo Reve-01" xmlns="http://www.w3.org/2000/svg" width="195.389" height="69.353" viewBox="0 0 195.389 69.353">
  <path id="Path_1" data-name="Path 1" d="M81.25,54.61a22.74,22.74,0,0,1,6,5.74l-6,4.77L79,67a13.12,13.12,0,0,0-4.6-4.14,12.93,12.93,0,0,0-11.22-.51A13.32,13.32,0,0,0,59,65.12a13,13,0,0,0-2.79,4.13,12.6,12.6,0,0,0-1,5.07v29.73H44.56V50.65H55.2v4a23.83,23.83,0,0,1,6.1-2.92,23.349,23.349,0,0,1,19.95,2.92" transform="translate(-44.141 -50.378)" fill="#d5d5d5"/>
  <path id="Path_2" data-name="Path 2" d="M116.89,81.45H96.11a16.73,16.73,0,0,0,2.12,5.22,16.4,16.4,0,0,0,3.67,4.19,17.09,17.09,0,0,0,4.86,2.74,16.5,16.5,0,0,0,5.68,1,15.92,15.92,0,0,0,6.77-1.45,17,17,0,0,0,5.53-4h12.51a17.781,17.781,0,0,1-1.5,3c-.58.93-1.22,1.84-1.91,2.74a27.38,27.38,0,0,1-9.3,7.59,26.21,26.21,0,0,1-12.1,2.85,26.81,26.81,0,0,1-10.64-2.12A27.2,27.2,0,0,1,87.27,88.58a27.79,27.79,0,0,1,0-21.29A27.22,27.22,0,0,1,101.8,52.77a26.63,26.63,0,0,1,10.64-2.12,26.32,26.32,0,0,1,12.1,2.84,27,27,0,0,1,9.3,7.7,26.6,26.6,0,0,1,5.89,16.75,18.71,18.71,0,0,1-.31,3.51H116.89Zm-4.45-20.16a16.2,16.2,0,0,0-9,2.61,16.82,16.82,0,0,0-6.05,6.9h30.19c-.35-.54-.68-1.09-1-1.63a15.583,15.583,0,0,0-1-1.54,17,17,0,0,0-5.8-4.63,16.38,16.38,0,0,0-7.34-1.69" transform="translate(-44.141 -50.378)" fill="#d5d5d5"/>
  <path id="Path_3" data-name="Path 3" d="M186.23,50.75,168.25,91.99l-5.79,13.23-5.79-13.23L138.68,50.75h11.48l12.3,28.12,12.3-28.12Z" transform="translate(-44.141 -50.378)" fill="#d5d5d5"/>
  <path id="Path_4" data-name="Path 4" d="M68.2,80.87c3.21.52,6.44.93,9.67,1.3s6.48.68,9.72.94c6.48.54,13,.88,19.47,1.07q4.88.13,9.75.15h4.87l4.87-.08c3.25-.09,6.5-.17,9.74-.34s6.48-.36,9.71-.58,6.47-.5,9.7-.84,6.44-.71,9.66-1.07,6.42-.84,9.62-1.37c1.6-.26,3.2-.49,4.79-.77l4.78-.86c1.6-.26,3.18-.61,4.77-.92s3.17-.62,4.75-1c3.15-.71,6.31-1.38,9.44-2.2,1.57-.4,3.14-.77,4.69-1.19l4.67-1.29c1.56-.42,3.11-.89,4.65-1.36l4.62-1.41-2,2.74a15.179,15.179,0,0,0-.17-1.68c-.07-.56-.17-1.17-.28-1.74a31.152,31.152,0,0,0-.79-3.4,17.85,17.85,0,0,0-2.76-5.82,7.1,7.1,0,0,0-2-1.76,5.17,5.17,0,0,0-2.24-.67,11.15,11.15,0,0,0-5.55,1.52l-.72.4-.77.45-.64.42-.68.47a26.139,26.139,0,0,0-2.56,2.14,30.67,30.67,0,0,0-4.35,5.24,48.509,48.509,0,0,0-5.81,12.79,66.559,66.559,0,0,0-1.69,7c-.22,1.18-.41,2.36-.56,3.52l-.1.86v.57a7.872,7.872,0,0,0,.09,1.26,6.26,6.26,0,0,0,.71,2.14,3.15,3.15,0,0,0,1.15,1.17,7.52,7.52,0,0,0,4.61.5,27.691,27.691,0,0,0,6.27-1.72,60.33,60.33,0,0,0,6.42-3,128.482,128.482,0,0,0,12.48-7.61h0A4.94,4.94,0,0,1,225.77,93l-.15.1a140.22,140.22,0,0,1-13.71,7.7,73.579,73.579,0,0,1-7.49,3.12,37.71,37.71,0,0,1-8.42,1.94,20,20,0,0,1-4.86-.11,13.2,13.2,0,0,1-5.21-1.94A11.6,11.6,0,0,1,182,99.43a14.339,14.339,0,0,1-1.51-5.07,17.68,17.68,0,0,1-.09-2.53,3.607,3.607,0,0,1,.06-.76l.07-.56.16-1c.22-1.34.47-2.65.77-4a72.443,72.443,0,0,1,2.17-7.71,55.85,55.85,0,0,1,7.24-14.49,37.7,37.7,0,0,1,5.57-6.23,30.389,30.389,0,0,1,3.36-2.6l.89-.58,1-.58.89-.48,1-.48a21.66,21.66,0,0,1,4.19-1.53,14.06,14.06,0,0,1,4.85-.39,11.3,11.3,0,0,1,4.9,1.69A13.29,13.29,0,0,1,221,55.54a23.47,23.47,0,0,1,3.5,7.92q.5,1.979.8,4c.09.67.17,1.35.24,2s.11,1.32.14,2.1l.08,2.2-2,.54L219,75.62c-1.59.42-3.18.85-4.78,1.21L209.4,78c-1.6.37-3.21.69-4.81,1-3.2.72-6.43,1.28-9.65,1.9-1.61.31-3.24.54-4.85.82s-3.23.55-4.86.76l-4.86.69c-1.62.23-3.25.41-4.88.61-3.24.42-6.5.7-9.76,1s-6.52.57-9.78.74-6.53.36-9.79.51-6.54.21-9.8.23-6.53,0-9.8,0l-4.89-.1L116.78,86c-3.27-.14-6.52-.29-9.78-.51q-9.765-.63-19.48-1.75-4.86-.57-9.69-1.29c-3.22-.48-6.44-1-9.63-1.64" transform="translate(-44.141 -50.378)" fill="#efc31a"/>
  <path id="Path_5" data-name="Path 5" d="M222.2,105.23l-5.4-3a130.922,130.922,0,0,0,7-14.55,57.34,57.34,0,0,1-12.92.76l.35-6.17c2.57.15,10.11.18,14-1.4a3.89,3.89,0,0,1,4.61.87c1.24,1.39,3.3,3.73-7.68,23.5" transform="translate(-44.141 -50.378)" fill="#efc319"/>
  <path id="Path_6" data-name="Path 6" d="M52.42,108.27v10.46a.77.77,0,0,1-1.54,0v-.56A3.46,3.46,0,0,1,48,119.68,4.37,4.37,0,0,1,48,111a3.46,3.46,0,0,1,2.92,1.45v-4.14a.77.77,0,0,1,1.54,0m-1.54,7a2.73,2.73,0,0,0-2.69-2.91,2.76,2.76,0,0,0-2.71,2.91,2.79,2.79,0,0,0,2.71,2.93,2.76,2.76,0,0,0,2.69-2.93" transform="translate(-44.141 -50.378)" fill="#58595b"/>
  <path id="Path_7" data-name="Path 7" d="M59,111a4.36,4.36,0,1,1-4.23,4.35A4.26,4.26,0,0,1,59,111m0,1.44a2.76,2.76,0,0,0-2.71,2.91A2.79,2.79,0,0,0,59,118.28a2.76,2.76,0,0,0,2.69-2.93A2.73,2.73,0,0,0,59,112.44" transform="translate(-44.141 -50.378)" fill="#58595b"/>
  <path id="Path_8" data-name="Path 8" d="M68.11,119.68c-1.82,0-3.38-.87-3.38-1.7a.55.55,0,0,1,.6-.57c.58,0,1.22,1,2.92,1,1,0,1.56-.49,1.56-1.17,0-1.92-4.86-.83-4.86-3.92C65,112,66.13,111,68.11,111c1.56,0,2.86.71,2.86,1.38a.55.55,0,0,1-.59.58c-.57,0-1.14-.68-2.43-.68-.93,0-1.49.43-1.49,1.06,0,1.8,4.86.83,4.86,3.88,0,1.41-1.13,2.5-3.21,2.5" transform="translate(-44.141 -50.378)" fill="#58595b"/>
  <path id="Path_9" data-name="Path 9" d="M77.71,118a.55.55,0,0,1,.6.57c0,.59-.71,1.16-1.92,1.16-1.58,0-2.52-.92-2.52-2.7v-4.45H73a.69.69,0,0,1,0-1.37h.92V109.9a.75.75,0,0,1,.77-.79.76.76,0,0,1,.78.79v1.31h1.89a.65.65,0,0,1,.67.7.64.64,0,0,1-.67.67H75.43v4.58c0,.79.37,1.13,1,1.13s.9-.29,1.25-.29" transform="translate(-44.141 -50.378)" fill="#58595b"/>
  <path id="Path_10" data-name="Path 10" d="M87.7,111.89v6.86a.77.77,0,1,1-1.54,0v-.58a3.46,3.46,0,0,1-2.92,1.51,4.37,4.37,0,0,1,0-8.72,3.46,3.46,0,0,1,2.92,1.45v-.52a.77.77,0,1,1,1.54,0m-1.54,3.42a2.73,2.73,0,0,0-2.69-2.91,2.76,2.76,0,0,0-2.71,2.91,2.79,2.79,0,0,0,2.71,2.93,2.76,2.76,0,0,0,2.69-2.93" transform="translate(-44.141 -50.378)" fill="#58595b"/>
  <path id="Path_11" data-name="Path 11" d="M92.3,118.4l-2.39-6.16c-.24-.69.12-1.13.69-1.13s.68.26.82.73l2.31,6.3,2.34-6.35c.15-.47.38-.68.8-.68a.735.735,0,0,1,.64,1.06L95.1,118.4a1.43,1.43,0,0,1-2.8,0" transform="translate(-44.141 -50.378)" fill="#58595b"/>
  <path id="Path_12" data-name="Path 12" d="M107.24,111.89v6.86a.77.77,0,1,1-1.54,0v-.58a3.46,3.46,0,0,1-2.92,1.51,4.37,4.37,0,0,1,0-8.72,3.46,3.46,0,0,1,2.92,1.45v-.52a.77.77,0,0,1,1.54,0m-1.54,3.42a2.73,2.73,0,0,0-2.7-2.91,2.76,2.76,0,0,0-2.71,2.91,2.79,2.79,0,0,0,2.71,2.93,2.76,2.76,0,0,0,2.69-2.93" transform="translate(-44.141 -50.378)" fill="#58595b"/>
  <path id="Path_13" data-name="Path 13" d="M239.53,76.16a4.32,4.32,0,1,1-4.32-4.31,4.32,4.32,0,0,1,4.32,4.31" transform="translate(-44.141 -50.378)" fill="#94acb5"/>
</svg>
